<?xml version="1.0" encoding="iso-8859-1"?>
<!-- Generator: Adobe Illustrator 19.0.0, SVG Export Plug-In . SVG Version: 6.00 Build 0)  -->
<svg version="1.1" id="Capa_1" xmlns="http://www.w3.org/2000/svg" xmlns:xlink="http://www.w3.org/1999/xlink" x="0px" y="0px"
	 viewBox="0 0 512 512" style="enable-background:new 0 0 512 512;" xml:space="preserve">
<path style="fill:#C9F3FF;" d="M431.014,346H80.986l-1.074,7.912C69.28,432.262,130.194,502,209.262,502h93.476
	c79.068,0,139.982-69.738,129.35-148.088L431.014,346z"/>
<path style="fill:#D8FB93;" d="M432.088,353.912l-32.561-239.951H112.474L79.912,353.912c-0.041,0.302-0.081,0.603-0.12,0.905
	c-5.623,43.665,28.615,82.27,72.64,82.27h207.134c44.026,0,78.263-38.604,72.64-82.27
	C432.168,354.515,432.129,354.213,432.088,353.912z"/>
<path style="fill:#F4FFD2;" d="M240.984,342.248l43.023-43.023c10.349-10.349,27.128-10.349,37.477,0l43.023,43.023
	c10.349,10.349,10.349,27.128,0,37.477l-43.023,43.023c-10.349,10.349-27.128,10.349-37.477,0l-43.023-43.023
	C230.635,369.376,230.635,352.597,240.984,342.248z"/>
<path style="fill:#62CD4D;" d="M375.614,92.551c39.052,39.052,39.052,102.369,0,141.421s-102.369,39.052-141.421,0L375.614,92.551z"
	/>
<path style="fill:#FFF0A4;" d="M259.648,208.516c24.994,24.994,65.516,24.994,90.51,0c24.994-24.994,24.994-65.516,0-90.51
	L259.648,208.516z"/>
<path style="fill:#62CD4D;" d="M190.011,386.605c-55.228,0-100-44.772-100-100s44.772-100,100-100V386.605z"/>
<path style="fill:#FFF0A4;" d="M190.011,222.605c-35.346,0-64,28.654-64,64s28.654,64,64,64V222.605z"/>
<path d="M281.67,74c2.63,0,5.2-1.07,7.07-2.93c1.86-1.86,2.93-4.44,2.93-7.07c0-2.63-1.07-5.21-2.93-7.07
	c-1.87-1.86-4.44-2.93-7.07-2.93c-2.64,0-5.21,1.07-7.07,2.93c-1.87,1.86-2.93,4.44-2.93,7.07c0,2.63,1.06,5.21,2.93,7.07
	C276.46,72.93,279.03,74,281.67,74z"/>
<path d="M442.289,354.964c-0.053-0.478-0.103-0.955-0.165-1.433l-0.125-0.95c0-0.002-0.001-0.003-0.001-0.004
	c0-0.003-0.001-0.006-0.001-0.009L402.656,62.655C401.983,57.698,397.75,54,392.747,54h-65.08c-5.523,0-10,4.477-10,10
	s4.477,10,10,10h56.345l2.035,14.999c-1.094-1.192-2.211-2.368-3.363-3.519c-3.905-3.905-10.237-3.905-14.142,0L227.121,226.901
	c-1.875,1.875-2.929,4.419-2.929,7.071s1.054,5.196,2.929,7.071c21.445,21.444,49.614,32.167,77.782,32.167
	s56.337-10.722,77.781-32.167c8.268-8.268,15.052-17.623,20.231-27.739l19.261,141.936c0,0,0,0.001,0,0.002l0.004,0.027
	c0.056,0.416,0.1,0.831,0.152,1.247c2.161,17.733-3.362,35.591-15.206,49.057c-12.023,13.671-29.358,21.512-47.56,21.512h-28.278
	l40.29-40.29c6.894-6.894,10.69-16.06,10.69-25.81s-3.797-18.916-10.69-25.81l-43.023-43.023
	c-6.894-6.894-16.06-10.691-25.81-10.691s-18.916,3.796-25.81,10.69l-43.023,43.023c-14.231,14.231-14.231,37.387,0,51.619
	l40.29,40.29H152.433c-18.201,0-35.536-7.841-47.56-21.512c-11.844-13.467-17.367-31.326-15.207-49.051
	c0.052-0.418,0.096-0.835,0.153-1.253l0.004-0.027c0-0.001,0-0.001,0-0.001l2.466-18.173c18.321,35.335,55.246,59.536,97.721,59.536
	c5.523,0,10-4.477,10-10v-200c0-5.523-4.477-10-10-10c-31.885,0-60.639,13.641-80.748,35.388L127.988,74h25.678v44
	c0,5.523,4.477,10,10,10s10-4.477,10-10V74h66c5.523,0,10-4.477,10-10s-4.477-10-10-10h-66V10c0-5.523-4.477-10-10-10
	s-10,4.477-10,10v44h-34.413c-5.003,0-9.236,3.698-9.909,8.655L70.003,352.567c0,0.003-0.001,0.006-0.001,0.009
	c0,0.002-0.001,0.003-0.001,0.004l-0.126,0.958c-0.061,0.475-0.111,0.95-0.164,1.425c-4.661,39.417,7.546,79.001,33.708,108.952
	C130.11,494.474,168.688,512,209.262,512h93.476c40.574,0,79.152-17.526,105.844-48.084
	C434.743,433.965,446.951,394.381,442.289,354.964z M358.903,163.262c0,1.689-0.084,3.364-0.236,5.025l-35.212-9.435l26.045-26.045
	C355.608,141.71,358.903,152.23,358.903,163.262z M329.153,211.498l-8.78-32.767l32.789,8.786
	c-2.561,5.083-5.933,9.786-10.075,13.928C338.897,205.634,334.18,208.976,329.153,211.498z M300.493,181.813L309.921,217
	c-12.286,1.137-24.883-1.92-35.464-9.152L300.493,181.813z M368.543,226.901c-32.7,32.701-84.513,34.927-119.818,6.681
	l11.415-11.414c13.177,10.028,28.964,15.059,44.764,15.059c6.612,0,13.22-0.899,19.641-2.656c0.139-0.031,0.278-0.046,0.416-0.083
	c0.188-0.05,0.366-0.117,0.549-0.177c11.622-3.349,22.581-9.584,31.72-18.723c13.977-13.977,21.674-32.56,21.674-52.326
	c0-16.392-5.308-31.96-15.086-44.772l11.411-11.411c12.75,15.897,19.675,35.509,19.675,56.183
	C394.903,187.301,385.542,209.902,368.543,226.901z M248.055,349.32l43.023-43.023c3.116-3.117,7.26-4.833,11.667-4.833
	s8.551,1.716,11.667,4.833l43.024,43.023c3.116,3.116,4.833,7.26,4.833,11.667s-1.716,8.551-4.833,11.667l-43.023,43.023
	c-6.433,6.433-16.901,6.434-23.334,0l-43.023-43.023C241.622,366.221,241.621,355.753,248.055,349.32z M180.011,270.368
	l-31.548-18.214c7.883-9.491,18.952-16.237,31.548-18.606V270.368z M136.011,286.604c0-5.925,0.973-11.624,2.744-16.962
	l29.378,16.962l-29.378,16.962C136.984,298.228,136.011,292.529,136.011,286.604z M180.011,302.841v36.82
	c-12.596-2.369-23.665-9.114-31.548-18.605L180.011,302.841z M180.011,197.156v16.143c-23.239,3.155-43.073,17.13-54.259,36.678
	c-0.096,0.148-0.199,0.291-0.288,0.445c-0.094,0.163-0.17,0.33-0.254,0.496c-5.855,10.59-9.199,22.753-9.199,35.686
	c0,12.931,3.343,25.093,9.197,35.682c0.084,0.167,0.161,0.336,0.256,0.501c0.068,0.118,0.152,0.22,0.224,0.334
	c11.174,19.606,31.04,33.628,54.323,36.789v16.143c-44.937-4.991-80-43.202-80-89.448S135.074,202.147,180.011,197.156z
	 M393.519,450.759C370.626,476.968,337.538,492,302.738,492h-93.476c-34.8,0-67.888-15.032-90.781-41.241
	c-4.995-5.719-9.397-11.847-13.179-18.291c13.749,9.428,30.151,14.619,47.13,14.619h207.134c16.979,0,33.382-5.191,47.13-14.619
	C402.915,438.912,398.513,445.04,393.519,450.759z"/>
<path d="M379.34,298.53c1.86-1.86,2.93-4.43,2.93-7.07c0-2.63-1.07-5.21-2.93-7.07c-1.86-1.86-4.44-2.93-7.07-2.93
	s-5.21,1.07-7.07,2.93c-1.86,1.86-2.93,4.44-2.93,7.07c0,2.64,1.07,5.21,2.93,7.07c1.86,1.87,4.44,2.93,7.07,2.93
	S377.48,300.4,379.34,298.53z"/>
<path d="M281.26,105.93c-1.86,1.86-2.93,4.44-2.93,7.07s1.07,5.21,2.93,7.07s4.44,2.93,7.07,2.93c2.64,0,5.21-1.07,7.07-2.93
	c1.87-1.86,2.93-4.44,2.93-7.07s-1.06-5.21-2.93-7.07c-1.86-1.86-4.43-2.93-7.07-2.93C285.7,103,283.12,104.07,281.26,105.93z"/>
<path d="M233.22,167.08c2.63,0,5.21-1.06,7.07-2.93c1.86-1.86,2.93-4.43,2.93-7.07c0-2.63-1.07-5.21-2.93-7.07
	c-1.86-1.86-4.44-2.93-7.07-2.93s-5.21,1.07-7.07,2.93s-2.93,4.44-2.93,7.07c0,2.64,1.07,5.21,2.93,7.07
	C228.01,166.02,230.59,167.08,233.22,167.08z"/>
<path d="M226.07,110.74c1.86-1.87,2.93-4.44,2.93-7.07c0-2.64-1.07-5.21-2.93-7.07c-1.86-1.87-4.44-2.93-7.07-2.93
	s-5.21,1.06-7.07,2.93c-1.86,1.86-2.93,4.43-2.93,7.07c0,2.63,1.07,5.21,2.93,7.07c1.86,1.86,4.44,2.93,7.07,2.93
	S224.21,112.6,226.07,110.74z"/>
<path d="M203.52,403.37c0,2.63,1.07,5.21,2.93,7.07c1.87,1.86,4.44,2.93,7.07,2.93s5.21-1.07,7.07-2.93
	c1.87-1.87,2.93-4.44,2.93-7.07c0-2.64-1.06-5.21-2.93-7.07c-1.86-1.87-4.43-2.93-7.07-2.93c-2.63,0-5.21,1.06-7.07,2.93
	C204.59,398.16,203.52,400.73,203.52,403.37z"/>
<path d="M163.67,146.17c-2.64,0-5.21,1.06-7.08,2.93c-1.86,1.86-2.92,4.43-2.92,7.07c0,2.63,1.06,5.21,2.92,7.07
	c1.87,1.86,4.44,2.93,7.08,2.93c2.63,0,5.21-1.07,7.07-2.93s2.93-4.44,2.93-7.07s-1.07-5.21-2.93-7.07
	C168.88,147.23,166.3,146.17,163.67,146.17z"/>
<g>
</g>
<g>
</g>
<g>
</g>
<g>
</g>
<g>
</g>
<g>
</g>
<g>
</g>
<g>
</g>
<g>
</g>
<g>
</g>
<g>
</g>
<g>
</g>
<g>
</g>
<g>
</g>
<g>
</g>
</svg>
