<?xml version="1.0" encoding="iso-8859-1"?>
<!-- Generator: Adobe Illustrator 19.0.0, SVG Export Plug-In . SVG Version: 6.00 Build 0)  -->
<svg version="1.1" id="Capa_1" xmlns="http://www.w3.org/2000/svg" xmlns:xlink="http://www.w3.org/1999/xlink" x="0px" y="0px"
	 viewBox="0 0 511.999 511.999" style="enable-background:new 0 0 511.999 511.999;" xml:space="preserve">
<path style="fill:#CEDDDA;" d="M381.747,195.119h-52.493v29.866h52.493c16.343,0,29.638,13.296,29.638,29.638v144.558
	c0,16.344-13.296,29.639-29.638,29.639h-52.493v24.605c0,1.757-0.062,3.51-0.158,5.261h52.651c32.811,0,59.504-26.694,59.504-59.505
	V254.623C441.252,221.813,414.558,195.119,381.747,195.119z"/>
<path style="fill:#E5F9F6;" d="M338.182,166.373L338.182,166.373c-5.3-4.752-8.328-11.533-8.328-18.651v-40.965H87.404v40.965
	c0,7.118-3.028,13.9-8.328,18.651l0,0c-5.3,4.752-8.328,11.533-8.328,18.651v259.298c0,12.266,2.343,24.419,6.904,35.806l0,0
	c5.89,14.707,20.138,24.349,35.981,24.349h189.993c15.843,0,30.09-9.642,35.981-24.349l0,0c4.56-11.387,6.904-23.54,6.904-35.806
	V185.024C346.51,177.907,343.482,171.125,338.182,166.373z"/>
<path style="fill:#D6E5E2;" d="M338.182,166.373L338.182,166.373c-5.3-4.752-8.328-11.533-8.328-18.651v-40.965h-55.137v40.965
	c0,7.118,3.028,13.9,8.328,18.651l0,0c5.3,4.752,8.328,11.533,8.328,18.651v259.298c0,12.266-2.343,24.419-6.904,35.806l0,0
	c-5.89,14.707-20.138,24.349-35.981,24.349h55.137c15.843,0,30.09-9.642,35.981-24.349l0,0c4.56-11.387,6.904-23.54,6.904-35.806
	V185.024C346.51,177.907,343.482,171.125,338.182,166.373z"/>
<path style="fill:#CCF9B4;" d="M70.748,185.978v258.345c0,12.266,2.343,24.419,6.904,35.806l0,0
	c5.89,14.707,20.138,24.349,35.981,24.349h189.993c15.843,0,30.09-9.642,35.981-24.349l0,0c4.56-11.387,6.904-23.54,6.904-35.806
	V185.978H70.748z"/>
<path style="fill:#AFE288;" d="M291.373,444.323c0,12.266-2.343,24.419-6.904,35.806l0,0c-5.89,14.707-20.138,24.349-35.981,24.349
	h55.137c14.852,0,28.303-8.474,34.78-21.652c0.432-0.878,0.833-1.778,1.201-2.697l0,0c0.57-1.423,1.106-2.859,1.606-4.305
	s0.966-2.903,1.397-4.369c0.861-2.932,1.582-5.902,2.159-8.9c1.156-5.995,1.742-12.1,1.742-18.233V185.978h-55.137V444.323z"/>
<path style="fill:#77D057;" d="M317.401,279.186c1.875-1.56,2.016-4.372,0.341-6.145c-25.43-26.909-67.742-29.746-96.595-5.731
	s-33.744,66.139-11.898,96.031c1.439,1.969,4.23,2.341,6.104,0.78L317.401,279.186z"/>
<g>
	<path style="fill:#F0FFE9;" d="M306.115,288.579c-18.268-21.939-50.862-24.919-72.806-6.655s-24.93,50.857-6.671,72.804
		L306.115,288.579z"/>
	<path style="fill:#F0FFE9;" d="M101.272,242.182l35.147-35.147c1.378-1.378,3.612-1.378,4.99,0l35.147,35.147
		c1.378,1.378,1.378,3.612,0,4.99l-35.147,35.147c-1.378,1.378-3.612,1.378-4.99,0l-35.147-35.147
		C99.894,245.793,99.894,243.559,101.272,242.182z"/>
	<path style="fill:#F0FFE9;" d="M249.715,422.888l35.147-35.147c1.378-1.378,3.612-1.378,4.99,0l35.147,35.147
		c1.378,1.378,1.378,3.612,0,4.99l-35.147,35.147c-1.378,1.378-3.612,1.378-4.99,0l-35.147-35.147
		C248.337,426.5,248.337,424.266,249.715,422.888z"/>
</g>
<path style="fill:#77D057;" d="M172.627,380.983c-24.128-16.971-70.161-12.736-70.161-12.736s-2.741,46.146,15.003,69.712
	c32.881,43.668,69.299,11.901,69.299,11.901S217.338,412.432,172.627,380.983z"/>
<path style="fill:#D7E0DC;" d="M332.913,491.104c-25.882-7.327-70.546-12.17-121.328-12.17c-53.957,0-101.01,5.467-125.959,13.573
	c7.174,7.496,17.219,11.97,28.007,11.97h189.993C315.071,504.477,325.682,499.443,332.913,491.104z"/>
<path style="fill:#FF7B98;" d="M355.904,17.603L341.165,8.2c-2.001-1.276-4.657-0.689-5.933,1.311L222.645,185.978h31.21
	l103.36-162.442C358.491,21.536,357.904,18.879,355.904,17.603z"/>
<path style="fill:#CEDDDA;" d="M344.336,113.419v-12.357c0-3-2.432-5.432-5.432-5.432H78.355c-3,0-5.432,2.432-5.432,5.432v12.357
	c0,3,2.432,5.432,5.432,5.432c-3,0-5.432,2.432-5.432,5.432v12.357c0,3,2.432,5.432,5.432,5.432h260.549
	c3,0,5.432-2.432,5.432-5.432v-12.357c0-3-2.432-5.432-5.432-5.432C341.904,118.851,344.336,116.419,344.336,113.419z"/>
<path style="fill:#B8CCC8;" d="M344.336,113.419v-12.357c0-3-2.432-5.432-5.432-5.432h-48.636v46.442h48.636
	c3,0,5.432-2.432,5.432-5.432v-12.357c0-3-2.432-5.432-5.432-5.432C341.904,118.851,344.336,116.419,344.336,113.419z"/>
<path style="fill:#D6E5E2;" d="M291.373,389.261v55.061c0,6.404-0.654,12.774-1.914,19.023c0.135-0.101,0.271-0.199,0.393-0.321
	l35.147-35.147c1.378-1.378,1.378-3.612,0-4.99L291.373,389.261z"/>
<path d="M252.12,292.766c-2.658-3.194-7.402-3.627-10.594-0.97c-3.193,2.658-3.627,7.401-0.97,10.594l2.343,2.815
	c1.488,1.787,3.629,2.71,5.786,2.71c1.696,0,3.403-0.571,4.808-1.74c3.193-2.658,3.627-7.401,0.97-10.594L252.12,292.766z"/>
<path d="M259.728,290.402l-0.333,3.646c-0.378,4.137,2.669,7.797,6.806,8.175c0.233,0.022,0.464,0.032,0.693,0.032
	c3.845,0,7.125-2.934,7.482-6.838l0.333-3.646c0.378-4.137-2.669-7.797-6.806-8.175
	C263.765,283.213,260.106,286.265,259.728,290.402z"/>
<path d="M240.496,309.777l-3.646-0.334c-4.127-0.385-7.797,2.667-8.176,6.805c-0.379,4.137,2.668,7.798,6.805,8.177l3.645,0.334
	c0.234,0.022,0.465,0.032,0.695,0.032c3.844,0,7.124-2.933,7.482-6.836C247.68,313.816,244.633,310.156,240.496,309.777z"/>
<path d="M216.334,261.529c-31.662,26.353-37.442,73.024-13.159,106.251c1.914,2.619,4.855,4.348,8.067,4.744
	c0.473,0.058,0.947,0.087,1.42,0.087c2.721,0,5.395-0.953,7.502-2.708l102.048-84.935c2.475-2.06,4.005-5.085,4.197-8.3
	c0.193-3.231-0.975-6.436-3.202-8.793C294.942,237.965,247.997,235.176,216.334,261.529z M261.565,315.872l-33.463,27.851
	c-10.539-18.269-6.728-42.078,10.021-56.018c8.24-6.858,18.259-10.203,28.224-10.203c10.291,0,20.526,3.569,28.681,10.518
	L261.565,315.872z M306.703,278.303c-21.478-19.997-55.071-21.416-78.205-2.16c-23.135,19.256-27.838,52.55-12.072,77.299
	l-3.093,2.575c-17.265-26.592-12.045-62.391,12.626-82.924c11.754-9.783,26.11-14.594,40.414-14.594
	c15.719,0,31.374,5.813,43.424,17.23L306.703,278.303z"/>
<path d="M146.727,201.715c-4.309-4.309-11.319-4.308-15.627,0l-35.148,35.148c-2.087,2.087-3.237,4.862-3.237,7.813
	s1.149,5.727,3.237,7.813l35.148,35.148c2.154,2.154,4.984,3.232,7.814,3.232s5.659-1.077,7.813-3.232l35.148-35.148
	c2.087-2.087,3.237-4.862,3.237-7.813s-1.149-5.727-3.237-7.813L146.727,201.715z M138.913,274.176l-29.499-29.499l29.499-29.499
	l29.5,29.499L138.913,274.176z"/>
<path d="M279.543,382.422l-35.147,35.148c-4.309,4.309-4.309,11.319,0,15.627l35.147,35.147c2.155,2.155,4.984,3.232,7.814,3.231
	c2.83,0,5.659-1.077,7.814-3.231l35.15-35.149c4.304-4.308,4.304-11.316-0.002-15.625l-35.149-35.148
	C290.862,378.115,283.854,378.114,279.543,382.422z M287.357,454.882l-29.499-29.499l29.499-29.499l29.5,29.499L287.357,454.882z"/>
<path d="M381.747,187.597h-27.715v-2.572c0-9.242-3.947-18.082-10.829-24.252c-3.235-2.9-5.264-6.897-5.725-11.178h1.425
	c7.143,0,12.954-5.811,12.954-12.954v-12.357c0-1.939-0.428-3.779-1.195-5.432c0.767-1.653,1.195-3.493,1.195-5.432v-12.357
	c0-7.143-5.811-12.954-12.954-12.954h-13.86l38.513-60.527c3.504-5.493,1.886-12.814-3.607-16.319l0,0l-14.741-9.404
	c-2.662-1.698-5.825-2.258-8.907-1.576c-3.082,0.681-5.716,2.523-7.412,5.184L276.161,88.11H78.355
	c-7.143,0-12.954,5.811-12.954,12.954v12.357c0,1.939,0.428,3.779,1.195,5.432c-0.767,1.653-1.195,3.494-1.195,5.432v12.357
	c0,7.143,5.811,12.954,12.954,12.954h1.425c-0.461,4.281-2.49,8.278-5.725,11.178c-6.882,6.17-10.829,15.01-10.829,24.252v63.573
	c0,4.154,3.368,7.522,7.522,7.522s7.522-3.368,7.522-7.522v-55.098h260.718l0,0l0,0l0,0l0,0v250.823l0,0
	c0,1.239-0.037,2.474-0.088,3.707c-0.027,0.615-0.066,1.232-0.106,1.849c-0.034,0.551-0.073,1.101-0.117,1.65
	c-0.068,0.823-0.143,1.646-0.234,2.471c-0.026,0.234-0.056,0.467-0.084,0.701c-0.113,0.955-0.234,1.91-0.378,2.864
	c-0.006,0.038-0.006,0.075-0.011,0.113c-1.019,6.71-2.796,13.286-5.347,19.655c-0.738,1.843-1.652,3.572-2.687,5.201
	c-27.932-6.992-71.549-11.12-118.352-11.12c-49.564,0-96.016,4.733-123.375,12.459c-1.42-2-2.631-4.183-3.575-6.54
	c-4.223-10.545-6.365-21.65-6.365-33.009V283.571c0-4.154-3.368-7.522-7.522-7.522s-7.522,3.368-7.522,7.522v160.752
	c0,13.284,2.504,26.271,7.443,38.602c7.074,17.662,23.939,29.074,42.965,29.074h189.993c19.026,0,35.889-11.412,42.964-29.074
	c2.184-5.454,3.89-11.037,5.116-16.717h30.042c36.959,0,67.027-30.068,67.027-67.027V254.623
	C448.774,217.665,418.706,187.597,381.747,187.597z M339.837,16.276l9.305,5.936l-5.873,9.23l-12.014-1.714L339.837,16.276z
	 M322.368,43.657l12.036,1.717l-9.08,14.27l-12.058-1.72L322.368,43.657z M304.38,71.852l12.079,1.723l-9.247,14.533h-13.204
	L304.38,71.852z M80.445,126.373h186.648c4.155,0,7.522-3.368,7.522-7.522s-3.367-7.522-7.522-7.522H80.445v-8.177h256.369l0,0l0,0
	v8.177H302.58c-4.155,0-7.522,3.368-7.522,7.522s3.367,7.522,7.522,7.522h34.233v8.177l0,0l0,0l0,0H80.445l0,0V126.373z
	 M218.521,178.456H79.573c0.992-2.451,2.516-4.681,4.525-6.482c6.416-5.752,10.28-13.823,10.775-22.38h142.063L218.521,178.456z
	 M249.725,178.456h-13.359l5.394-8.454l12.234,1.745L249.725,178.456z M250.647,156.073l4.134-6.479h13.31l-5.231,8.221
	L250.647,156.073z M267.557,178.456l18.364-28.862h36.466c0.495,8.556,4.358,16.628,10.774,22.379
	c2.008,1.801,3.532,4.032,4.525,6.482h-70.129V178.456z M303.626,496.955H113.633c-3.316,0-6.531-0.523-9.564-1.49
	c26.641-5.649,65.81-9.008,107.516-9.008c39.87,0,77.145,3.017,103.743,8.24C311.688,496.159,307.733,496.955,303.626,496.955z
	 M354.032,232.507h27.715c12.195,0,22.117,9.921,22.117,22.116v144.558c0,12.195-9.922,22.117-22.117,22.117h-27.715V232.507z
	 M433.73,399.181c0,28.664-23.319,51.983-51.983,51.983h-27.943c0.069-1.054,0.12-2.11,0.157-3.168
	c0.006-0.161,0.012-0.321,0.017-0.482c0.032-1.062,0.054-2.126,0.054-3.192v-7.98h27.715c20.491,0,37.161-16.67,37.161-37.161
	V254.623c0-20.49-16.67-37.16-37.161-37.16h-27.715v-14.822h27.715c28.663,0,51.983,23.319,51.983,51.982V399.181z"/>
<path d="M204.052,414.337c-2.062-15.018-11.179-28.31-27.098-39.506c-26.091-18.353-73.187-14.259-75.178-14.074
	c-3.702,0.34-6.599,3.334-6.82,7.044c-0.119,1.997-2.685,49.201,16.503,74.682c11.706,15.548,25.287,24.229,40.364,25.803
	c1.66,0.173,3.287,0.254,4.882,0.254c19.843,0,34.352-12.441,35.006-13.012c0.319-0.278,0.614-0.583,0.881-0.91
	C193.187,453.892,207.103,436.556,204.052,414.337z M168.299,387.135c12.31,8.659,19.318,18.453,20.829,29.111
	c1.214,8.562-1.319,16.352-3.879,21.674l-6.261-6.061l4.265-18.342c0.941-4.047-1.577-8.09-5.623-9.03
	c-4.05-0.942-8.09,1.577-9.03,5.623l-2.219,9.544l-6.668-6.455l3.202-13.775c0.941-4.046-1.577-8.089-5.623-9.03
	c-4.047-0.94-8.089,1.577-9.03,5.623l-1.157,4.976l-5.713-5.53l1.64-7.052c0.941-4.047-1.576-8.09-5.623-9.03
	c-3.487-0.812-6.961,0.947-8.462,4.034l-8.299-8.034c2.378,0.07,4.91,0.194,7.537,0.39
	C145.719,377.079,159.589,381.009,168.299,387.135z M153.248,453.309c-10.701-1.165-20.718-7.852-29.77-19.875
	c-9.383-12.461-12.397-32.706-13.29-47.242l8.296,8.032c-3.037,1.6-4.682,5.132-3.759,8.589c0.898,3.364,3.939,5.584,7.263,5.584
	c0.643,0,1.295-0.083,1.945-0.257l6.997-1.868l5.712,5.53l-4.936,1.318c-4.014,1.072-6.399,5.193-5.327,9.208
	c0.898,3.364,3.938,5.584,7.263,5.584c0.642,0,1.295-0.083,1.945-0.257l13.663-3.647l6.529,6.32l-9.102,2.43
	c-4.014,1.072-6.399,5.194-5.327,9.208c0.898,3.364,3.938,5.584,7.263,5.584c0.642,0,1.295-0.083,1.945-0.257l17.829-4.759
	l6.4,6.196C169.543,451.462,161.841,454.244,153.248,453.309z"/>
<g>
</g>
<g>
</g>
<g>
</g>
<g>
</g>
<g>
</g>
<g>
</g>
<g>
</g>
<g>
</g>
<g>
</g>
<g>
</g>
<g>
</g>
<g>
</g>
<g>
</g>
<g>
</g>
<g>
</g>
</svg>
