<?xml version="1.0" encoding="iso-8859-1"?>
<!-- Generator: Adobe Illustrator 19.0.0, SVG Export Plug-In . SVG Version: 6.00 Build 0)  -->
<svg version="1.1" id="Capa_1" xmlns="http://www.w3.org/2000/svg" xmlns:xlink="http://www.w3.org/1999/xlink" x="0px" y="0px"
	 viewBox="0 0 512.001 512.001" style="enable-background:new 0 0 512.001 512.001;" xml:space="preserve">
<path style="fill:#C9F3FF;" d="M258.677,207H10v259.8c0,19.44,15.76,35.2,35.2,35.2h281.6c19.44,0,35.2-15.76,35.2-35.2V207H258.677
	z"/>
<path style="fill:#FFB140;" d="M10,189v223.8c0,19.44,15.76,35.2,35.2,35.2h281.6c19.44,0,35.2-15.76,35.2-35.2V189H10z"/>
<g>
	<path style="fill:#FFF0A4;" d="M157.093,233.566l-36.269-36.269c-8.724-8.724-22.869-8.724-31.593,0l-36.269,36.269
		c-8.724,8.724-8.724,22.869,0,31.593l36.269,36.269c8.724,8.724,22.869,8.724,31.593,0l36.269-36.269
		C165.818,256.435,165.818,242.29,157.093,233.566z"/>
	<path style="fill:#FFF0A4;" d="M288.021,320.542l-37.003-37.003c-14.226-14.226-37.291-14.226-51.516,0L162.5,320.542
		c-14.226,14.226-14.226,37.291,0,51.516l37.003,37.003c14.226,14.226,37.291,14.226,51.516,0l37.003-37.003
		C302.247,357.833,302.247,334.768,288.021,320.542z"/>
</g>
<circle style="fill:#FFD364;" cx="379" cy="133" r="123"/>
<circle style="fill:#FFF0A4;" cx="379" cy="133" r="76.875"/>
<path d="M155.429,313.471c-8.769,8.77-13.598,20.429-13.598,32.83s4.829,24.061,13.598,32.829l37.003,37.003
	c9.051,9.051,20.94,13.576,32.829,13.576s23.778-4.525,32.83-13.576l37.002-37.003c8.77-8.769,13.599-20.428,13.599-32.829
	s-4.829-24.061-13.598-32.83l0,0l-37.002-37.002c-18.102-18.102-47.557-18.102-65.658,0L155.429,313.471z M225.261,282.883
	c6.767,0,13.536,2.577,18.688,7.729l37.002,37.002c4.992,4.991,7.741,11.628,7.741,18.688c0,7.059-2.749,13.695-7.741,18.687
	l-37.002,37.003c-10.305,10.303-27.071,10.304-37.375,0l-37.003-37.003c-4.991-4.991-7.74-11.628-7.74-18.687
	c0-7.06,2.749-13.696,7.74-18.688l37.002-37.002C211.726,285.46,218.492,282.883,225.261,282.883z"/>
<path d="M232.33,196.069c1.86-1.859,2.93-4.439,2.93-7.069s-1.07-5.21-2.93-7.07c-1.86-1.86-4.44-2.93-7.07-2.93
	s-5.21,1.069-7.07,2.93s-2.93,4.44-2.93,7.07s1.07,5.21,2.93,7.069c1.86,1.86,4.44,2.931,7.07,2.931S230.47,197.93,232.33,196.069z"
	/>
<path d="M379,0c-71.325,0-129.709,56.438-132.858,127H105.65L87.017,47.712c-1.264-5.376-6.647-8.713-12.022-7.446
	c-5.376,1.263-8.711,6.646-7.447,12.022L85.105,127H10c-5.523,0-10,4.478-10,10v329.8C0,491.724,20.277,512,45.2,512h281.6
	c24.923,0,45.2-20.276,45.2-45.2V293.576c0-5.522-4.477-10-10-10s-10,4.478-10,10V412.8c0,13.896-11.305,25.2-25.2,25.2H45.2
	C31.305,438,20,426.695,20,412.8V199h53.388l-27.495,27.495c-6.108,6.108-9.472,14.229-9.472,22.867
	c0,8.639,3.364,16.76,9.472,22.868L82.162,308.5c6.305,6.305,14.585,9.457,22.867,9.456c8.28-0.001,16.563-3.152,22.868-9.456
	l36.269-36.269c6.108-6.108,9.472-14.229,9.472-22.868c0-8.638-3.364-16.759-9.472-22.867L136.669,199H181c5.523,0,10-4.478,10-10
	s-4.477-10-10-10h-63.129l-7.52-32h136.386c7.018,66.781,63.655,119,132.264,119c73.336,0,133-59.663,133-133S452.336,0,379,0z
	 M45.2,458h281.6c9.323,0,17.996-2.839,25.2-7.695V466.8c0,13.896-11.305,25.2-25.2,25.2H45.2C31.305,492,20,480.695,20,466.8
	v-16.495C27.205,455.161,35.877,458,45.2,458z M150.022,240.638c2.331,2.33,3.614,5.429,3.614,8.725s-1.284,6.396-3.614,8.726
	l-36.268,36.269c-4.81,4.813-12.639,4.812-17.45,0L60.035,258.09c-2.331-2.33-3.614-5.43-3.614-8.726s1.283-6.395,3.614-8.725
	l36.269-36.27c2.331-2.33,5.429-3.614,8.725-3.614s6.395,1.284,8.725,3.615L150.022,240.638L150.022,240.638z M97.326,179H20v-32
	h69.805L97.326,179z M379,246c-62.309,0-113-50.691-113-113S316.691,20,379,20s113,50.691,113,113S441.309,246,379,246z"/>
<path d="M379,46.125c-47.903,0-86.875,38.972-86.875,86.875s38.972,86.875,86.875,86.875s86.875-38.972,86.875-86.875
	S426.903,46.125,379,46.125z M312.125,133c0-8.62,1.657-16.855,4.64-24.428l42.231,24.15l-42.261,24.63
	C313.771,149.8,312.125,141.591,312.125,133z M445.875,133c0,8.398-1.571,16.432-4.409,23.843l-42.468-24.285l42.035-24.498
	C444.145,115.773,445.875,124.186,445.875,133z M430.863,90.839L389,115.236V66.875C405.81,69.407,420.585,78.221,430.863,90.839z
	 M369,66.875v48.529l-42.202-24.133C337.088,78.424,352.001,69.435,369,66.875z M326.748,174.665L369,150.041v49.084
	C351.973,196.561,337.039,187.546,326.748,174.665z M389,199.125V149.88l42.59,24.355C421.289,187.344,406.216,196.532,389,199.125z
	"/>
<path d="M86.54,376.93c-1.86,1.86-2.92,4.44-2.92,7.07c0,2.64,1.06,5.21,2.92,7.069c1.87,1.87,4.45,2.931,7.08,2.931
	c2.63,0,5.2-1.061,7.07-2.931c1.86-1.859,2.93-4.43,2.93-7.069c0-2.63-1.07-5.21-2.93-7.07S96.25,374,93.62,374
	C90.98,374,88.41,375.069,86.54,376.93z"/>
<path d="M45.02,327.891c-1.86,1.86-2.93,4.44-2.93,7.07s1.07,5.21,2.93,7.07c1.86,1.859,4.44,2.93,7.07,2.93s5.21-1.07,7.07-2.93
	s2.93-4.44,2.93-7.07s-1.07-5.21-2.93-7.07c-1.86-1.859-4.44-2.93-7.07-2.93S46.88,326.03,45.02,327.891z"/>
<path d="M316,293.58c0-2.641-1.07-5.21-2.93-7.08c-1.86-1.86-4.44-2.92-7.07-2.92s-5.21,1.06-7.07,2.92
	c-1.86,1.87-2.93,4.439-2.93,7.08c0,2.63,1.07,5.21,2.93,7.069c1.86,1.86,4.44,2.931,7.07,2.931s5.21-1.07,7.07-2.931
	C314.93,298.79,316,296.21,316,293.58z"/>
<g>
</g>
<g>
</g>
<g>
</g>
<g>
</g>
<g>
</g>
<g>
</g>
<g>
</g>
<g>
</g>
<g>
</g>
<g>
</g>
<g>
</g>
<g>
</g>
<g>
</g>
<g>
</g>
<g>
</g>
</svg>
