<?xml version="1.0" encoding="iso-8859-1"?>
<!-- Generator: Adobe Illustrator 19.0.0, SVG Export Plug-In . SVG Version: 6.00 Build 0)  -->
<svg version="1.1" id="Capa_1" xmlns="http://www.w3.org/2000/svg" xmlns:xlink="http://www.w3.org/1999/xlink" x="0px" y="0px"
	 viewBox="0 0 512.001 512.001" style="enable-background:new 0 0 512.001 512.001;" xml:space="preserve">
<path style="fill:#FF8392;" d="M359.772,263.34L359.772,263.34c-8.372-16.966-14.297-34.792-17.781-52.98H165.727
	c-3.483,18.188-9.409,36.014-17.78,52.98l0,0c-11.073,22.44-14.548,47.871-9.903,72.46l0,0
	c8.654,45.801,44.021,81.894,89.637,91.475l0,0c3.251,0.683,6.522,1.236,9.806,1.662v38.162l-62.666,26.221
	c-4.55,1.904-3.189,8.682,1.743,8.682h154.591c4.933,0,6.293-6.781,1.74-8.683l-62.629-26.162v-38.223
	c3.271-0.425,6.532-0.978,9.771-1.658c45.617-9.581,80.985-45.673,89.638-91.475C374.32,311.211,370.845,285.779,359.772,263.34z"/>
<path style="fill:#C9F3FF;" d="M237.487,428.935v38.162l-62.666,26.221c-4.55,1.904-3.189,8.682,1.743,8.682h154.591
	c4.933,0,6.294-6.781,1.741-8.683l-62.629-26.162v-38.223L237.487,428.935z"/>
<path style="fill:#30AA5B;" d="M88.501,43.419c2.859,3.45,5.435,6.243,7.854,8.513h0.212c1.825-0.803,3.69-1.552,5.604-2.231
	c8.369-3.09,20.467-4.894,33.093-4.882l0,0c0.007,0,0.015,0,0.022,0s0.015,0,0.022,0l0,0c12.626-0.012,24.725,1.792,33.093,4.882
	c1.903,0.675,3.758,1.419,5.575,2.217h0.256c2.415-2.268,4.986-5.055,7.84-8.5c9.231-11.14,23.554-8.594,23.554-8.594
	s-17.187-37.08-52.836-20.689c-12.375,5.691-16.548,15.134-17.463,23.629l-0.081-0.013c-0.918-8.491-5.091-17.929-17.461-23.616
	c-35.649-16.392-52.837,20.69-52.837,20.69S79.271,32.278,88.501,43.419z"/>
<path style="fill:#F75857;" d="M197.099,68.089c-7.578-8.197-17.404-14.38-28.698-18.389c-8.369-3.09-20.467-4.894-33.093-4.882l0,0
	c-0.007,0-0.015,0-0.022,0s-0.015,0-0.022,0l0,0c-12.626-0.012-24.725,1.792-33.093,4.882
	c-26.693,9.474-45.185,31.103-45.185,62.727c0,30.631,41.357,108.483,78.278,108.545v0.001c0.007,0,0.015,0,0.022,0s0.015,0,0.022,0
	v-0.001c36.921-0.062,78.278-77.914,78.278-108.545C213.586,94.184,207.432,79.265,197.099,68.089"/>
<path style="fill:#A0E557;" d="M421.952,202.995c44.161-44.161,44.161-115.76,0-159.921s-115.76-44.161-159.921,0L421.952,202.995z"
	/>
<path style="fill:#D8FB93;" d="M398.566,179.608c31.245-31.245,31.245-81.903,0-113.148s-81.903-31.245-113.148,0L398.566,179.608z"
	/>
<path d="M429.024,36.002c-47.991-47.989-126.075-47.989-174.065,0c-1.875,1.875-2.929,4.419-2.929,7.072
	c0,2.652,1.054,5.196,2.929,7.072l57.816,57.816h-89.313c-0.921-18.078-7.441-34.138-19.02-46.662
	c-4.186-4.528-8.951-8.519-14.239-11.968c5.124-5.628,12.879-4.764,13.725-4.65c3.677,0.728,7.338-0.688,9.665-3.633
	c2.339-2.959,2.691-7.007,1.105-10.429c-0.538-1.16-5.549-11.576-15.759-20.001C184.528-1.271,166.654-3.247,148.61,5.05
	c-5.307,2.44-9.766,5.588-13.323,9.373c-3.559-3.785-8.017-6.932-13.324-9.373c-18.045-8.297-35.919-6.32-50.329,5.57
	c-10.212,8.424-15.222,18.84-15.759,20c-1.568,3.382-1.125,7.356,1.15,10.309c2.274,2.953,6.005,4.399,9.673,3.744
	c0.085-0.014,8.315-1.261,13.697,4.689c-21.221,13.911-33.409,36.383-33.409,63.067c0,17.502,10.802,46.089,26.878,71.138
	c11.352,17.687,34.42,47.363,61.402,47.409c0.014,0,0.03,0,0.044,0c5.523,0,10.001-4.477,10.001-10.001
	c0-5.46-4.375-9.897-9.811-9.999c-0.072-0.002-0.146-0.003-0.218-0.003c-12.387-0.021-29.471-14.662-44.584-38.211
	c-15.399-23.994-23.709-48.994-23.709-60.335c0-30.67,19.096-44.903,33.443-51.27c0.029-0.012,0.057-0.026,0.086-0.038
	c1.751-0.774,3.435-1.438,4.999-1.993c0.04-0.015,0.08-0.029,0.12-0.043c7.232-2.671,18.258-4.263,29.522-4.263
	c0.042-0.002,0.087,0,0.129,0c0.008,0,0.014,0,0.021,0c0.041,0.003,0.08,0,0.12,0c11.252,0,22.276,1.592,29.51,4.263
	c0.037,0.014,0.074,0.027,0.111,0.04c0.002,0.001,0.004,0.002,0.007,0.003c0.015,0.005,0.031,0.012,0.046,0.017
	c1.004,0.357,1.979,0.743,2.949,1.135c0.482,0.197,0.965,0.398,1.45,0.608c8.039,3.459,14.846,8.145,20.254,13.993
	c8.251,8.923,12.831,20.04,13.675,33.084h-40.877c-3.102,0-6.029,1.439-7.923,3.897c-1.893,2.457-2.538,5.655-1.747,8.654
	c12.216,46.318,7.278,95.47-13.905,138.4c-11.956,24.229-15.777,52.193-10.762,78.741c9.436,49.941,47.67,88.959,97.408,99.405
	c0.618,0.13,1.238,0.256,1.861,0.377v23.002l-56.525,23.651c-6.46,2.702-10.009,9.384-8.631,16.25
	c1.378,6.865,7.231,11.659,14.232,11.659h154.591c7.005,0,12.857-4.796,14.233-11.664c1.376-6.868-2.176-13.549-8.639-16.248
	l-56.48-23.596v-23.062c0.61-0.12,1.22-0.243,1.826-0.371c49.738-10.446,87.973-49.465,97.408-99.405
	c5.016-26.548,1.194-54.513-10.762-78.741l0,0c-7.952-16.116-13.614-33.108-16.94-50.498c-0.006-0.033-0.011-0.066-0.018-0.099
	c-3.958-20.755-4.577-42.074-1.796-63.144l41.503,41.503c0.001,0.001,0.002,0.003,0.004,0.004s0.003,0.003,0.004,0.004
	l23.382,23.382c1.876,1.875,4.419,2.929,7.072,2.929s5.195-1.054,7.072-2.929C477.013,162.077,477.013,83.992,429.024,36.002z
	 M156.966,23.222c10.975-5.046,20.402-4.234,28.819,2.48c0.656,0.523,1.283,1.065,1.881,1.616
	c-4.694,1.913-9.373,4.985-13.297,9.721c-0.952,1.149-1.863,2.212-2.74,3.195c-0.002-0.001-0.003-0.001-0.005-0.001
	c-6.979-2.541-15.975-4.279-25.666-5.016C147.465,29.817,151.028,25.952,156.966,23.222z M84.786,25.702
	c8.419-6.716,17.845-7.526,28.819-2.48c5.939,2.73,9.501,6.595,11.009,11.995c-9.693,0.737-18.689,2.474-25.665,5.015
	c-0.881-0.987-1.79-2.04-2.747-3.195c-3.923-4.735-8.6-7.807-13.295-9.72C83.504,26.767,84.131,26.226,84.786,25.702z
	 M359.848,333.942c-7.93,41.971-40.064,74.764-81.867,83.544c-2.96,0.622-5.99,1.136-9.004,1.528
	c-4.982,0.647-8.712,4.892-8.712,9.918v38.223c0,4.034,2.424,7.673,6.147,9.228l37.383,15.616h-99.909l37.465-15.675
	c3.719-1.556,6.141-5.193,6.141-9.226v-38.162c0-5.026-3.729-9.272-8.715-9.918c-3.029-0.393-6.069-0.908-9.036-1.532
	c-41.803-8.779-73.938-41.572-81.867-83.544c-4.216-22.312-1.004-45.814,9.045-66.177c21.415-43.4,27.75-92.572,18.227-139.801
	h157.435c-4.833,23.967-5.574,48.435-2.34,72.394H235.53c-5.523,0-10.001,4.477-10.001,10.001s4.478,10.001,10.001,10.001h98.362
	c3.767,16.289,9.411,32.201,16.913,47.404C360.852,288.128,364.063,311.63,359.848,333.942z M366.136,133.036h45.149
	c-1.652,11.619-6.176,22.541-13.224,31.925L366.136,133.036z M366.137,113.034l31.925-31.925
	c7.048,9.384,11.572,20.306,13.224,31.925C411.286,113.034,366.137,113.034,366.137,113.034z M351.992,98.889V53.74
	c11.62,1.652,22.541,6.177,31.925,13.224L351.992,98.889z M331.99,98.89l-31.925-31.925c9.384-7.048,20.306-11.572,31.925-13.224
	V98.89z M421.612,188.511l-9.303-9.303C425.06,163.309,432,143.709,432,123.034c0-24.042-9.362-46.645-26.362-63.645
	c-17-17.001-39.604-26.363-63.646-26.363c-20.674,0-40.275,6.941-56.174,19.692l-9.303-9.303
	c40.452-33.32,100.559-31.075,138.366,6.731C452.687,87.952,454.932,148.058,421.612,188.511z"/>
<path d="M135.288,164.298c-2.63,0-5.21,1.07-7.07,2.93c-1.86,1.86-2.931,4.44-2.931,7.071c0,2.64,1.07,5.21,2.931,7.071
	c1.859,1.87,4.439,2.93,7.07,2.93c2.63,0,5.21-1.06,7.071-2.93c1.86-1.86,2.93-4.43,2.93-7.071c0-2.63-1.069-5.21-2.93-7.071
	C140.497,165.369,137.917,164.298,135.288,164.298z"/>
<path d="M112.226,145.466c2.64,0,5.21-1.07,7.071-2.93c1.869-1.86,2.93-4.44,2.93-7.071s-1.061-5.21-2.93-7.071
	c-1.86-1.86-4.44-2.93-7.071-2.93c-2.63,0-5.2,1.07-7.071,2.93c-1.859,1.86-2.93,4.44-2.93,7.071s1.07,5.21,2.93,7.071
	C107.015,144.396,109.595,145.466,112.226,145.466z"/>
<path d="M104.965,85.53c-1.86-1.86-4.44-2.93-7.071-2.93s-5.21,1.07-7.071,2.93c-1.859,1.86-2.93,4.44-2.93,7.071
	c0,2.64,1.07,5.21,2.93,7.081c1.86,1.86,4.44,2.92,7.071,2.92s5.21-1.06,7.071-2.92c1.859-1.87,2.93-4.44,2.93-7.081
	C107.895,89.97,106.825,87.39,104.965,85.53z"/>
<path d="M182.972,99.671c1.859-1.86,2.93-4.43,2.93-7.071c0-2.63-1.07-5.21-2.93-7.071c-1.86-1.86-4.431-2.93-7.071-2.93
	c-2.63,0-5.21,1.07-7.071,2.93c-1.859,1.86-2.93,4.44-2.93,7.071c0,2.64,1.07,5.21,2.93,7.071c1.86,1.87,4.44,2.93,7.071,2.93
	S181.112,101.543,182.972,99.671z"/>
<path d="M143.969,85.53c-1.86-1.86-4.431-2.93-7.071-2.93c-2.63,0-5.21,1.07-7.071,2.93c-1.859,1.86-2.93,4.44-2.93,7.071
	c0,2.64,1.07,5.21,2.93,7.081c1.86,1.86,4.44,2.92,7.071,2.92s5.21-1.06,7.071-2.92c1.859-1.87,2.93-4.44,2.93-7.081
	C146.899,89.97,145.829,87.39,143.969,85.53z"/>
<path d="M206.375,260.977c-2.63,0-5.21,1.07-7.07,2.93c-1.86,1.86-2.931,4.44-2.931,7.071s1.07,5.21,2.931,7.071
	c1.859,1.86,4.439,2.93,7.07,2.93c2.63,0,5.21-1.07,7.071-2.93c1.87-1.86,2.93-4.44,2.93-7.071s-1.06-5.21-2.93-7.071
	C211.585,262.047,209.005,260.977,206.375,260.977z"/>
<path d="M197.854,333.983c-2.641,0-5.21,1.07-7.071,2.93c-1.87,1.86-2.93,4.44-2.93,7.071s1.06,5.21,2.93,7.071
	c1.86,1.86,4.43,2.93,7.071,2.93c2.63,0,5.21-1.07,7.07-2.93c1.86-1.86,2.931-4.44,2.931-7.071s-1.07-5.21-2.931-7.071
	C203.064,335.053,200.484,333.983,197.854,333.983z"/>
<path d="M309.074,294.05c1.859-1.86,2.92-4.44,2.92-7.071s-1.061-5.21-2.92-7.071c-1.87-1.86-4.44-2.93-7.071-2.93
	c-2.64,0-5.21,1.07-7.081,2.93c-1.859,1.86-2.92,4.44-2.92,7.071s1.061,5.21,2.92,7.071c1.87,1.86,4.44,2.93,7.081,2.93
	C304.634,296.98,307.204,295.91,309.074,294.05z"/>
<path d="M261.59,309.781c-2.63,0-5.21,1.07-7.07,2.93c-1.86,1.86-2.931,4.44-2.931,7.071s1.07,5.21,2.931,7.071
	c1.859,1.86,4.439,2.93,7.07,2.93s5.21-1.07,7.071-2.93c1.86-1.86,2.93-4.44,2.93-7.071s-1.069-5.21-2.93-7.071
	C266.8,310.851,264.219,309.781,261.59,309.781z"/>
<path d="M307.004,355.795c-2.64,0-5.21,1.07-7.071,2.93c-1.869,1.86-2.939,4.44-2.939,7.071s1.07,5.21,2.939,7.071
	c1.86,1.87,4.431,2.93,7.071,2.93c2.63,0,5.21-1.06,7.071-2.93c1.859-1.86,2.93-4.44,2.93-7.071s-1.07-5.21-2.93-7.071
	C312.204,356.866,309.634,355.795,307.004,355.795z"/>
<path d="M200.374,220.363c2.63,0,5.21-1.07,7.071-2.93c1.86-1.86,2.93-4.44,2.93-7.071c0-2.63-1.069-5.21-2.93-7.081
	c-1.86-1.85-4.43-2.92-7.071-2.92c-2.63,0-5.211,1.07-7.07,2.92c-1.86,1.87-2.931,4.45-2.931,7.081c0,2.63,1.07,5.21,2.931,7.071
	C195.173,219.293,197.744,220.363,200.374,220.363z"/>
<g>
</g>
<g>
</g>
<g>
</g>
<g>
</g>
<g>
</g>
<g>
</g>
<g>
</g>
<g>
</g>
<g>
</g>
<g>
</g>
<g>
</g>
<g>
</g>
<g>
</g>
<g>
</g>
<g>
</g>
</svg>
